<svg width="324" height="78" viewBox="0 0 324 78" fill="none" xmlns="http://www.w3.org/2000/svg">
<path d="M29.9 18H56.24L62.66 24.48V39.18L56.18 45.72H38.06V60H29.9V18ZM52.52 38.88L54.62 36.78V26.94L52.52 24.84H38.06V38.88H52.52ZM68.0891 53.1V24.9L74.9891 18H96.5891L103.489 24.9V53.1L96.5891 60H74.9891L68.0891 53.1ZM92.2691 53.04L95.3291 49.98V28.02L92.2691 24.96H79.3091L76.2491 28.02V49.98L79.3091 53.04H92.2691ZM110.701 18H118.861V35.58H125.221L135.361 18H144.541L132.241 38.94L145.561 60H136.201L125.161 42.54H118.861V60H110.701V18ZM149.783 18H180.143V24.9H157.943V35.52H178.403V42.3H157.943V53.1H180.143V60H149.783V18ZM186.17 18H194.33V53.1H215.33V60H186.17V18ZM218.323 53.1V24.9L225.223 18H246.823L253.723 24.9V53.1L246.823 60H225.223L218.323 53.1ZM242.503 53.04L245.563 49.98V28.02L242.503 24.96H229.543L226.483 28.02V49.98L229.543 53.04H242.503ZM260.335 53.1V24.9L267.235 18H288.115L294.895 24.78V31.2H286.735V27.78L283.915 24.96H271.555L268.495 28.02V49.98L271.555 53.04H284.035L286.975 50.1V43.56H277.975V36.6H294.895V53.1L287.995 60H267.235L260.335 53.1Z" fill="#8877FF"/>
</svg>
